# xmcd CD database file
#
# Track frame offsets:
#	150
#	11861
#	23626
#	38871
#	48218
#	63613
#	78403
#	89144
#	103539
#	119192
#
# Disc length: 1807 seconds
#
# Revision: 0
# Processed by: cddbd v1.4PL0 Copyright (c) Steve Scherf et al.
# Submitted via: CDex 1.40Release
#
DISCID=86070d0a
DTITLE=Brian Gowan - I Am Strong
DYEAR=2002
DGENRE=Country
TTITLE0=I Just Can't Wait
TTITLE1=Nursery Rhyme, Party Time
TTITLE2=Little Folks
TTITLE3=Itsy Bitsy Spider
TTITLE4=Somewhere In The World
TTITLE5=Mama's Little Fireman
TTITLE6=Chicken Lips, Lizard Lips
TTITLE7=I Am Strong
TTITLE8=America The Beautiful
TTITLE9=Goodnight From Texas
EXTD=YEAR: 2002 ID3G: 2
EXTT0=
EXTT1=
EXTT2=
EXTT3=
EXTT4=
EXTT5=
EXTT6=
EXTT7=
EXTT8=
EXTT9=
PLAYORDER=
